<svg xmlns="http://www.w3.org/2000/svg" xmlns:xlink="http://www.w3.org/1999/xlink" width="743.261" height="590.066" viewBox="0 0 743.261 590.066">
  <defs>
    <filter id="Shadow" x="30" y="118.849" width="713.261" height="471.217" filterUnits="userSpaceOnUse">
      <feOffset dx="15" dy="15" input="SourceAlpha"/>
      <feGaussianBlur stdDeviation="12.5" result="blur"/>
      <feFlood flood-color="#193566" flood-opacity="0.502"/>
      <feComposite operator="in" in2="blur"/>
      <feComposite in="SourceGraphic"/>
    </filter>
    <filter id="Light" x="0" y="88.849" width="713.261" height="471.217" filterUnits="userSpaceOnUse">
      <feOffset dx="-15" dy="-15" input="SourceAlpha"/>
      <feGaussianBlur stdDeviation="12.5" result="blur-2"/>
      <feFlood flood-color="#fff"/>
      <feComposite operator="in" in2="blur-2"/>
      <feComposite in="SourceGraphic"/>
    </filter>
    <filter id="Pillars_Shadow" x="189.149" y="12.5" width="384.912" height="565.067" filterUnits="userSpaceOnUse">
      <feOffset dx="10" dy="10" input="SourceAlpha"/>
      <feGaussianBlur stdDeviation="10" result="blur-3"/>
      <feFlood flood-color="#193566" flood-opacity="0.502"/>
      <feComposite operator="in" in2="blur-3"/>
      <feComposite in="SourceGraphic"/>
    </filter>
    <filter id="Pillars_Light" x="176.649" y="0" width="369.912" height="550.067" filterUnits="userSpaceOnUse">
      <feOffset dx="-10" dy="-10" input="SourceAlpha"/>
      <feGaussianBlur stdDeviation="7.5" result="blur-4"/>
      <feFlood flood-color="#fff"/>
      <feComposite operator="in" in2="blur-4"/>
      <feComposite in="SourceGraphic"/>
    </filter>
  </defs>
  <g id="Group_51" data-name="Group 51" transform="translate(-2513.82 -1314.993)">
    <g id="Base_and_Effect_" data-name="Base and Effect " transform="translate(2581.32 1471.342)">
      <g transform="matrix(1, 0, 0, 1, -67.5, -156.35)" filter="url(#Shadow)">
        <path id="Shadow-2" data-name="Shadow" d="M0,366.217V80.624H608.261V366.217ZM212.343,80.275V0H397.99V80.275Z" transform="translate(67.5 156.35)" fill="#ecf0f3"/>
      </g>
      <g transform="matrix(1, 0, 0, 1, -67.5, -156.35)" filter="url(#Light)">
        <path id="Light-2" data-name="Light" d="M0,366.217V80.624H608.261V366.217ZM212.343,80.275V0H397.99V80.275Z" transform="translate(67.5 156.35)" fill="#ecf0f3"/>
      </g>
      <path id="Base" d="M0,366.217V80.624H608.261V366.217ZM212.343,80.275V0H397.99V80.275Z" transform="translate(0 0)" fill="#ecf0f3"/>
    </g>
    <g id="Everything_else" data-name="Everything else" transform="translate(2583.305 1484.106)">
      <path id="Path_68" data-name="Path 68" d="M2424.415,1646.615V1529.19h13.729v-24.8s16.3-43.586,57.49-61.621c1.716,0,43.763,26.3,54.057,61.621.307.072,0,24.8,0,24.8h18.021v117.424Z" transform="translate(-2194.441 -1293.161)" fill="#d1d9e6"/>
      <path id="Path_65" data-name="Path 65" d="M2424.415,1614.809V1513.163h14.84V1491.7s8.223-31.8,43.331-47.411c1.463,0,34.1,16.838,42.874,47.411.261.063,0,21.466,0,21.466h18.51v101.646Z" transform="translate(-2181.857 -1261.357)" fill="#fff"/>
      <path id="Path_66" data-name="Path 66" d="M2424.415,1615.478V1515.99h11.7v-21.01s13.9-36.928,49-52.208c1.464,0,37.3,22.285,46.079,52.208.261.062,0,21.01,0,21.01h15.361v99.488Z" transform="translate(-2404.963 -1262.025)" fill="#97a7c3"/>
      <path id="Path_71" data-name="Path 71" d="M2424.415,1615.478V1515.99h11.7v-21.01s13.9-36.928,49-52.208c1.464,0,37.3,22.285,46.079,52.208.261.062,0,21.01,0,21.01h15.361v99.488Z" transform="translate(-1962.666 -1262.025)" fill="#97a7c3"/>
      <path id="Path_69" data-name="Path 69" d="M2424.415,1533.6v-52.324h5.4v-11.05s6.416-19.421,22.625-27.457c.675,0,17.222,11.72,21.272,27.457.121.033,0,11.05,0,11.05h7.092V1533.6Z" transform="translate(-2373.693 -1180.15)" fill="#fff"/>
      <path id="Path_70" data-name="Path 70" d="M2424.415,1533.6v-52.324h5.4v-11.05s6.416-19.421,22.625-27.457c.675,0,17.222,11.72,21.272,27.457.121.033,0,11.05,0,11.05h7.092V1533.6Z" transform="translate(-1931.396 -1180.15)" fill="#fff"/>
      <g id="Group_48" data-name="Group 48" transform="translate(216.565 103.002)">
        <rect id="Rectangle_3" data-name="Rectangle 3" width="14" height="27" transform="translate(-0.289 0.452)" fill="#d1d9e6"/>
        <rect id="Rectangle_4" data-name="Rectangle 4" width="18" height="27" transform="translate(21.711 0.452)" fill="#d1d9e6"/>
        <rect id="Rectangle_5" data-name="Rectangle 5" width="16" height="27" transform="translate(46.712 0.452)" fill="#d1d9e6"/>
        <rect id="Rectangle_6" data-name="Rectangle 6" width="17" height="27" transform="translate(69.712 0.452)" fill="#d1d9e6"/>
        <rect id="Rectangle_7" data-name="Rectangle 7" width="14" height="27" transform="translate(93.711 0.452)" fill="#d1d9e6"/>
        <rect id="Rectangle_8" data-name="Rectangle 8" width="15" height="27" transform="translate(116.711 0.452)" fill="#d1d9e6"/>
        <rect id="Rectangle_9" data-name="Rectangle 9" width="16" height="27" transform="translate(139.711 0.452)" fill="#d1d9e6"/>
        <rect id="Rectangle_10" data-name="Rectangle 10" width="10" height="27" transform="translate(163.712 0.452)" fill="#d1d9e6"/>
      </g>
      <g id="Group_49" data-name="Group 49" transform="translate(446.505 151.581)">
        <rect id="Rectangle_3-2" data-name="Rectangle 3" width="16" height="17" transform="translate(-0.229 -0.127)" fill="#d1d9e6"/>
        <rect id="Rectangle_4-2" data-name="Rectangle 4" width="14" height="17" transform="translate(24.771 -0.127)" fill="#d1d9e6"/>
        <rect id="Rectangle_5-2" data-name="Rectangle 5" width="15" height="17" transform="translate(47.771 -0.127)" fill="#d1d9e6"/>
        <rect id="Rectangle_6-2" data-name="Rectangle 6" width="16" height="17" transform="translate(70.771 -0.127)" fill="#d1d9e6"/>
        <rect id="Rectangle_7-2" data-name="Rectangle 7" width="15" height="17" transform="translate(94.771 -0.127)" fill="#d1d9e6"/>
        <rect id="Rectangle_8-2" data-name="Rectangle 8" width="15" height="17" transform="translate(118.771 -0.127)" fill="#d1d9e6"/>
        <rect id="Rectangle_9-2" data-name="Rectangle 9" width="16" height="17" transform="translate(141.771 -0.127)" fill="#d1d9e6"/>
      </g>
      <g id="Group_50" data-name="Group 50" transform="translate(3.897 151.581)">
        <rect id="Rectangle_3-3" data-name="Rectangle 3" width="16" height="17" transform="translate(0.38 -0.127)" fill="#d1d9e6"/>
        <rect id="Rectangle_4-3" data-name="Rectangle 4" width="16" height="17" transform="translate(24.38 -0.127)" fill="#d1d9e6"/>
        <rect id="Rectangle_5-3" data-name="Rectangle 5" width="16" height="17" transform="translate(47.38 -0.127)" fill="#d1d9e6"/>
        <rect id="Rectangle_6-3" data-name="Rectangle 6" width="14" height="17" transform="translate(71.38 -0.127)" fill="#d1d9e6"/>
        <rect id="Rectangle_7-3" data-name="Rectangle 7" width="16" height="17" transform="translate(94.38 -0.127)" fill="#d1d9e6"/>
        <rect id="Rectangle_8-3" data-name="Rectangle 8" width="16" height="17" transform="translate(117.38 -0.127)" fill="#d1d9e6"/>
        <rect id="Rectangle_9-3" data-name="Rectangle 9" width="12" height="17" transform="translate(142.38 -0.127)" fill="#d1d9e6"/>
      </g>
      <path id="Path_62" data-name="Path 62" d="M881.5,470.4h606.257v20.042H881.5Z" transform="translate(-881.501 -384.515)" fill="#d1d9e6"/>
      <path id="Path_79" data-name="Path 79" d="M2471.684,1393.563h187.623v8.666H2471.684Z" transform="translate(-2263.303 -1393.563)" fill="#97a7c3"/>
      <path id="Path_80" data-name="Path 80" d="M2471.684,1393.563h187.623v8.666H2471.684Z" transform="translate(-2263.303 -1358.336)" fill="#97a7c3"/>
      <path id="Path_81" data-name="Path 81" d="M2581.827,1437.216h158.645" transform="translate(-2581.827 -1266.351)" fill="none" stroke="#193566" stroke-width="1"/>
      <path id="Path_82" data-name="Path 82" d="M2581.827,1437.216h158.645" transform="translate(-2135.616 -1266.351)" fill="none" stroke="#193566" stroke-width="1"/>
    </g>
    <g id="Pillar_Effect" data-name="Pillar &amp; Effect" transform="translate(2737.969 1362.493)">
      <g transform="matrix(1, 0, 0, 1, -224.15, -47.5)" filter="url(#Pillars_Shadow)">
        <path id="Pillars_Shadow-2" data-name="Pillars Shadow" d="M230.934,475.067v-41.5h3.854V179.2h5.4V46.615l22.353-20.042.135.112v0l23.761,19.93v21.2h0V179.2h6.051V433.569h2.427v41.5ZM0,475.067v-41.5H3.854V179.2h5.4V46.615L31.6,26.573l.135.112v0L55.5,46.615v21.2h0V179.2H61.55V433.569h2.427v41.5Z" transform="translate(224.15 47.5)" fill="#97a7c3"/>
      </g>
      <g transform="matrix(1, 0, 0, 1, -224.15, -47.5)" filter="url(#Pillars_Light)">
        <path id="Pillars_Light-2" data-name="Pillars Light" d="M230.934,475.067v-41.5h3.854V179.2h5.4V46.615l22.353-20.042.135.112v0l23.761,19.93v21.2h0V179.2h6.051V433.569h2.427v41.5ZM0,475.067v-41.5H3.854V179.2h5.4V46.615L31.6,26.573l.135.112v0L55.5,46.615v21.2h0V179.2H61.55V433.569h2.427v41.5Z" transform="translate(224.15 47.5)" fill="#97a7c3"/>
      </g>
      <path id="Pillars" d="M230.934,475.067v-41.5h3.854V179.2h5.4V46.615l22.353-20.042.135.112v0l23.761,19.93v21.2h0V179.2h6.051V433.569h2.427v41.5ZM0,475.067v-41.5H3.854V179.2h5.4V46.615L31.6,26.573l.135.112v0L55.5,46.615v21.2h0V179.2H61.55V433.569h2.427v41.5Z" transform="translate(0 0)" fill="#ecf0f3"/>
    </g>
  </g>
</svg>
