<svg xmlns="http://www.w3.org/2000/svg" xmlns:xlink="http://www.w3.org/1999/xlink" width="1663.97" height="443.156" viewBox="0 0 1663.97 443.156">
  <defs>
    <style>
      .cls-1 {
        fill: #ecf0f3;
      }

      .cls-2, .cls-3 {
        fill: #193566;
      }

      .cls-3 {
        opacity: 0.3;
      }

      .cls-4 {
        filter: url(#Union_L-10);
      }

      .cls-5 {
        filter: url(#Union_S-10);
      }

      .cls-6 {
        filter: url(#Union_L-9);
      }

      .cls-7 {
        filter: url(#Union_S-9);
      }

      .cls-8 {
        filter: url(#Union_L-8);
      }

      .cls-9 {
        filter: url(#Union_S-8);
      }

      .cls-10 {
        filter: url(#Union_L-7);
      }

      .cls-11 {
        filter: url(#Union_S-7);
      }

      .cls-12 {
        filter: url(#Union_L-6);
      }

      .cls-13 {
        filter: url(#Union_S-6);
      }

      .cls-14 {
        filter: url(#Union_L-5);
      }

      .cls-15 {
        filter: url(#Union_S-5);
      }

      .cls-16 {
        filter: url(#Union_L-4);
      }

      .cls-17 {
        filter: url(#Union_S-4);
      }

      .cls-18 {
        filter: url(#Union_L-3);
      }

      .cls-19 {
        filter: url(#Union_S-3);
      }

      .cls-20 {
        filter: url(#Union_L-2);
      }

      .cls-21 {
        filter: url(#Union_S-2);
      }

      .cls-22 {
        filter: url(#Union_L);
      }

      .cls-23 {
        filter: url(#Union_S);
      }
    </style>
    <filter id="Union_S" x="10" y="183" width="153.689" height="210.351" filterUnits="userSpaceOnUse">
      <feOffset dx="5" dy="5" input="SourceAlpha"/>
      <feGaussianBlur stdDeviation="5" result="blur"/>
      <feFlood flood-color="#97a7c3" flood-opacity="0.498"/>
      <feComposite operator="in" in2="blur"/>
      <feComposite in="SourceGraphic"/>
    </filter>
    <filter id="Union_L" x="0" y="173" width="153.689" height="210.351" filterUnits="userSpaceOnUse">
      <feOffset dx="-5" dy="-5" input="SourceAlpha"/>
      <feGaussianBlur stdDeviation="5" result="blur-2"/>
      <feFlood flood-color="#fff"/>
      <feComposite operator="in" in2="blur-2"/>
      <feComposite in="SourceGraphic"/>
    </filter>
    <filter id="Union_S-2" x="727.8" y="227.308" width="141.313" height="195.314" filterUnits="userSpaceOnUse">
      <feOffset dx="5" dy="5" input="SourceAlpha"/>
      <feGaussianBlur stdDeviation="5" result="blur-3"/>
      <feFlood flood-color="#97a7c3" flood-opacity="0.498"/>
      <feComposite operator="in" in2="blur-3"/>
      <feComposite in="SourceGraphic"/>
    </filter>
    <filter id="Union_L-2" x="717.8" y="217.308" width="141.313" height="195.314" filterUnits="userSpaceOnUse">
      <feOffset dx="-5" dy="-5" input="SourceAlpha"/>
      <feGaussianBlur stdDeviation="5" result="blur-4"/>
      <feFlood flood-color="#fff"/>
      <feComposite operator="in" in2="blur-4"/>
      <feComposite in="SourceGraphic"/>
    </filter>
    <filter id="Union_S-3" x="133.042" y="59.765" width="107.303" height="142.715" filterUnits="userSpaceOnUse">
      <feOffset dx="5" dy="5" input="SourceAlpha"/>
      <feGaussianBlur stdDeviation="5" result="blur-5"/>
      <feFlood flood-color="#97a7c3" flood-opacity="0.498"/>
      <feComposite operator="in" in2="blur-5"/>
      <feComposite in="SourceGraphic"/>
    </filter>
    <filter id="Union_L-3" x="123.042" y="49.765" width="107.303" height="142.715" filterUnits="userSpaceOnUse">
      <feOffset dx="-5" dy="-5" input="SourceAlpha"/>
      <feGaussianBlur stdDeviation="5" result="blur-6"/>
      <feFlood flood-color="#fff"/>
      <feComposite operator="in" in2="blur-6"/>
      <feComposite in="SourceGraphic"/>
    </filter>
    <filter id="Union_S-4" x="529.083" y="183.263" width="93.019" height="121.888" filterUnits="userSpaceOnUse">
      <feOffset dx="5" dy="5" input="SourceAlpha"/>
      <feGaussianBlur stdDeviation="5" result="blur-7"/>
      <feFlood flood-color="#97a7c3" flood-opacity="0.498"/>
      <feComposite operator="in" in2="blur-7"/>
      <feComposite in="SourceGraphic"/>
    </filter>
    <filter id="Union_L-4" x="519.083" y="173.263" width="93.019" height="121.888" filterUnits="userSpaceOnUse">
      <feOffset dx="-5" dy="-5" input="SourceAlpha"/>
      <feGaussianBlur stdDeviation="5" result="blur-8"/>
      <feFlood flood-color="#fff"/>
      <feComposite operator="in" in2="blur-8"/>
      <feComposite in="SourceGraphic"/>
    </filter>
    <filter id="Union_S-5" x="751.527" y="59.765" width="103.552" height="137.246" filterUnits="userSpaceOnUse">
      <feOffset dx="5" dy="5" input="SourceAlpha"/>
      <feGaussianBlur stdDeviation="5" result="blur-9"/>
      <feFlood flood-color="#97a7c3" flood-opacity="0.498"/>
      <feComposite operator="in" in2="blur-9"/>
      <feComposite in="SourceGraphic"/>
    </filter>
    <filter id="Union_L-5" x="741.527" y="49.765" width="103.552" height="137.246" filterUnits="userSpaceOnUse">
      <feOffset dx="-5" dy="-5" input="SourceAlpha"/>
      <feGaussianBlur stdDeviation="5" result="blur-10"/>
      <feFlood flood-color="#fff"/>
      <feComposite operator="in" in2="blur-10"/>
      <feComposite in="SourceGraphic"/>
    </filter>
    <filter id="Union_S-6" x="187.508" y="253.074" width="128.997" height="174.346" filterUnits="userSpaceOnUse">
      <feOffset dx="5" dy="5" input="SourceAlpha"/>
      <feGaussianBlur stdDeviation="5" result="blur-11"/>
      <feFlood flood-color="#97a7c3" flood-opacity="0.498"/>
      <feComposite operator="in" in2="blur-11"/>
      <feComposite in="SourceGraphic"/>
    </filter>
    <filter id="Union_L-6" x="177.508" y="243.074" width="128.997" height="174.346" filterUnits="userSpaceOnUse">
      <feOffset dx="-5" dy="-5" input="SourceAlpha"/>
      <feGaussianBlur stdDeviation="5" result="blur-12"/>
      <feFlood flood-color="#fff"/>
      <feComposite operator="in" in2="blur-12"/>
      <feComposite in="SourceGraphic"/>
    </filter>
    <filter id="Union_S-7" x="1451.281" y="10" width="153.689" height="210.351" filterUnits="userSpaceOnUse">
      <feOffset dx="5" dy="5" input="SourceAlpha"/>
      <feGaussianBlur stdDeviation="5" result="blur-13"/>
      <feFlood flood-color="#97a7c3" flood-opacity="0.498"/>
      <feComposite operator="in" in2="blur-13"/>
      <feComposite in="SourceGraphic"/>
    </filter>
    <filter id="Union_L-7" x="1441.281" y="0" width="153.689" height="210.351" filterUnits="userSpaceOnUse">
      <feOffset dx="-5" dy="-5" input="SourceAlpha"/>
      <feGaussianBlur stdDeviation="5" result="blur-14"/>
      <feFlood flood-color="#fff"/>
      <feComposite operator="in" in2="blur-14"/>
      <feComposite in="SourceGraphic"/>
    </filter>
    <filter id="Union_S-8" x="1556.667" y="234.969" width="107.303" height="142.715" filterUnits="userSpaceOnUse">
      <feOffset dx="5" dy="5" input="SourceAlpha"/>
      <feGaussianBlur stdDeviation="5" result="blur-15"/>
      <feFlood flood-color="#97a7c3" flood-opacity="0.498"/>
      <feComposite operator="in" in2="blur-15"/>
      <feComposite in="SourceGraphic"/>
    </filter>
    <filter id="Union_L-8" x="1546.667" y="224.969" width="107.303" height="142.715" filterUnits="userSpaceOnUse">
      <feOffset dx="-5" dy="-5" input="SourceAlpha"/>
      <feGaussianBlur stdDeviation="5" result="blur-16"/>
      <feFlood flood-color="#fff"/>
      <feComposite operator="in" in2="blur-16"/>
      <feComposite in="SourceGraphic"/>
    </filter>
    <filter id="Union_S-9" x="981.525" y="156.969" width="107.303" height="142.715" filterUnits="userSpaceOnUse">
      <feOffset dx="5" dy="5" input="SourceAlpha"/>
      <feGaussianBlur stdDeviation="5" result="blur-17"/>
      <feFlood flood-color="#97a7c3" flood-opacity="0.498"/>
      <feComposite operator="in" in2="blur-17"/>
      <feComposite in="SourceGraphic"/>
    </filter>
    <filter id="Union_L-9" x="971.525" y="146.969" width="107.303" height="142.715" filterUnits="userSpaceOnUse">
      <feOffset dx="-5" dy="-5" input="SourceAlpha"/>
      <feGaussianBlur stdDeviation="5" result="blur-18"/>
      <feFlood flood-color="#fff"/>
      <feComposite operator="in" in2="blur-18"/>
      <feComposite in="SourceGraphic"/>
    </filter>
    <filter id="Union_S-10" x="1391.296" y="253.074" width="128.997" height="174.346" filterUnits="userSpaceOnUse">
      <feOffset dx="5" dy="5" input="SourceAlpha"/>
      <feGaussianBlur stdDeviation="5" result="blur-19"/>
      <feFlood flood-color="#97a7c3" flood-opacity="0.498"/>
      <feComposite operator="in" in2="blur-19"/>
      <feComposite in="SourceGraphic"/>
    </filter>
    <filter id="Union_L-10" x="1381.296" y="243.074" width="128.997" height="174.346" filterUnits="userSpaceOnUse">
      <feOffset dx="-5" dy="-5" input="SourceAlpha"/>
      <feGaussianBlur stdDeviation="5" result="blur-20"/>
      <feFlood flood-color="#fff"/>
      <feComposite operator="in" in2="blur-20"/>
      <feComposite in="SourceGraphic"/>
    </filter>
  </defs>
  <g id="Trees" transform="translate(20 133.969)">
    <g id="Group_29" data-name="Group 29" transform="translate(0 59.031)">
      <g class="cls-23" transform="matrix(1, 0, 0, 1, -20, -193)">
        <path id="Union_S-11" data-name="Union S" class="cls-1" d="M62.535,0c106.33,123.955,52.4,180.351,0,180.351Zm0,0V180.351C8.949,180.351-46.2,123.955,62.535,0Z" transform="translate(20 193)"/>
      </g>
      <g class="cls-22" transform="matrix(1, 0, 0, 1, -20, -193)">
        <path id="Union_L-11" data-name="Union L" class="cls-1" d="M62.535,0c106.33,123.955,52.4,180.351,0,180.351Zm0,0V180.351C8.949,180.351-46.2,123.955,62.535,0Z" transform="translate(20 193)"/>
      </g>
      <path id="Path_58" data-name="Path 58" class="cls-2" d="M1438.611,2753.343l-1.021,44.573-12.976-13.575,12.976,16.936V2844.4l-27.785-13.164-4.114-23.448,3.055,24.476,28.844,14.979-.734,43.885-46.077-32.125,46.077,35.4-.682,62.345h3.37l-.017-84.345,38.669-38.494-38.669,34.761.208-57.939,15.63-15.181-15.63,12.238Z" transform="translate(-1375.745 -2741.975)"/>
      <ellipse id="Ellipse_18" data-name="Ellipse 18" class="cls-3" cx="37.845" cy="8.65" rx="37.845" ry="8.65" transform="translate(23.938 207.856)"/>
    </g>
    <g id="Group_33" data-name="Group 33" transform="translate(717.8 103.339)">
      <g class="cls-21" transform="matrix(1, 0, 0, 1, -737.8, -237.31)">
        <path id="Union_S-12" data-name="Union S" class="cls-1" d="M56.277,0c95.69,113.62,47.16,165.314,0,165.314Zm0,0V165.314C8.054,165.314-41.573,113.62,56.277,0Z" transform="translate(737.8 237.31)"/>
      </g>
      <g class="cls-20" transform="matrix(1, 0, 0, 1, -737.8, -237.31)">
        <path id="Union_L-12" data-name="Union L" class="cls-1" d="M56.277,0c95.69,113.62,47.16,165.314,0,165.314Zm0,0V165.314C8.054,165.314-41.573,113.62,56.277,0Z" transform="translate(737.8 237.31)"/>
      </g>
      <path id="Path_58-2" data-name="Path 58" class="cls-2" d="M1434.28,2753.343l-.929,40.821-11.8-12.432,11.8,15.51v39.493l-25.27-12.055-3.741-21.474,2.778,22.416,26.233,13.718-.668,40.189-41.905-29.42,41.905,32.421-.621,57.1h3.065l-.016-77.245,35.168-35.253-35.168,31.835.189-53.063,14.215-13.9-14.215,11.207Z" transform="translate(-1377.106 -2743.005)"/>
      <ellipse id="Ellipse_18-2" data-name="Ellipse 18" class="cls-3" cx="33.519" cy="7.569" rx="33.519" ry="7.569" transform="translate(22.979 190.709)"/>
    </g>
    <g id="Group_30" data-name="Group 30" transform="translate(123.042 -64.204)">
      <g class="cls-19" transform="matrix(1, 0, 0, 1, -143.04, -69.77)">
        <path id="Union_S-13" data-name="Union S" class="cls-1" d="M39.083,0c66.454,77.469,32.751,112.715,0,112.715Zm0,0V112.715C5.593,112.715-28.871,77.469,39.083,0Z" transform="translate(143.04 69.77)"/>
      </g>
      <g class="cls-18" transform="matrix(1, 0, 0, 1, -143.04, -69.77)">
        <path id="Union_L-13" data-name="Union L" class="cls-1" d="M39.083,0c66.454,77.469,32.751,112.715,0,112.715Zm0,0V112.715C5.593,112.715-28.871,77.469,39.083,0Z" transform="translate(143.04 69.77)"/>
      </g>
      <path id="Path_58-3" data-name="Path 58" class="cls-2" d="M1420.672,2753.343l-.638,27.857-8.11-8.484,8.11,10.585v26.951l-17.365-8.227-2.571-14.654,1.909,15.3,18.027,9.362-.459,27.427-28.8-20.078,28.8,22.126-.427,38.964h2.106l-.011-52.714,24.167-24.058-24.167,21.724.13-36.211,9.768-9.488-9.768,7.649Z" transform="translate(-1381.383 -2746.238)"/>
      <ellipse id="Ellipse_18-3" data-name="Ellipse 18" class="cls-3" cx="22.707" cy="4.325" rx="22.707" ry="4.325" transform="translate(15.511 130.646)"/>
    </g>
    <g id="Group_34" data-name="Group 34" transform="translate(519.083 59.294)">
      <g class="cls-17" transform="matrix(1, 0, 0, 1, -539.08, -193.26)">
        <path id="Union_S-14" data-name="Union S" class="cls-1" d="M31.861,0c54.175,63.154,26.7,91.888,0,91.888Zm0,0V91.888C4.56,91.888-23.536,63.154,31.861,0Z" transform="translate(539.08 193.26)"/>
      </g>
      <g class="cls-16" transform="matrix(1, 0, 0, 1, -539.08, -193.26)">
        <path id="Union_L-14" data-name="Union L" class="cls-1" d="M31.861,0c54.175,63.154,26.7,91.888,0,91.888Zm0,0V91.888C4.56,91.888-23.536,63.154,31.861,0Z" transform="translate(539.08 193.26)"/>
      </g>
      <path id="Path_58-4" data-name="Path 58" class="cls-2" d="M1415.149,2753.343l-.52,22.71-6.611-6.916,6.611,8.629v21.972l-14.156-6.707-2.1-11.946,1.556,12.469,14.7,7.633-.374,22.359-23.476-16.368,23.476,18.037-.348,31.765h1.718l-.009-42.974,19.7-19.613-19.7,17.71.106-29.52,7.963-7.735-7.963,6.236Z" transform="translate(-1383.119 -2747.551)"/>
      <ellipse id="Ellipse_18-4" data-name="Ellipse 18" class="cls-3" cx="18.382" cy="3.244" rx="18.382" ry="3.244" transform="translate(12.725 107.165)"/>
    </g>
    <g id="Group_39" data-name="Group 39" transform="translate(741.527 -64.204)">
      <g class="cls-15" transform="matrix(1, 0, 0, 1, -761.53, -69.77)">
        <path id="Union_S-15" data-name="Union S" class="cls-1" d="M37.186,0c63.229,73.71,31.162,107.246,0,107.246Zm0,0V107.246C5.322,107.246-27.47,73.71,37.186,0Z" transform="translate(761.53 69.77)"/>
      </g>
      <g class="cls-14" transform="matrix(1, 0, 0, 1, -761.53, -69.77)">
        <path id="Union_L-15" data-name="Union L" class="cls-1" d="M37.186,0c63.229,73.71,31.162,107.246,0,107.246Zm0,0V107.246C5.322,107.246-27.47,73.71,37.186,0Z" transform="translate(761.53 69.77)"/>
      </g>
      <path id="Path_58-5" data-name="Path 58" class="cls-2" d="M1419.222,2753.343l-.607,26.506-7.716-8.072,7.716,10.071v25.644l-16.522-7.828-2.447-13.943,1.816,14.553,17.152,8.908-.437,26.1-27.4-19.1,27.4,21.052-.406,37.074h2l-.01-50.156,22.995-22.891-22.995,20.67.124-34.453,9.294-9.027-9.294,7.278Z" transform="translate(-1381.839 -2746.583)"/>
      <ellipse id="Ellipse_18-5" data-name="Ellipse 18" class="cls-3" cx="21.454" cy="3.786" rx="21.454" ry="3.786" transform="translate(14.852 125.076)"/>
    </g>
    <g id="Group_31" data-name="Group 31" transform="translate(177.508 129.105)">
      <g class="cls-13" transform="matrix(1, 0, 0, 1, -197.51, -263.07)">
        <path id="Union_S-16" data-name="Union S" class="cls-1" d="M50.051,144.346C135.153,45.137,91.993,0,50.051,0Zm0,0V0C7.163,0-36.973,45.137,50.051,144.346Z" transform="translate(296.5 407.42) rotate(180)"/>
      </g>
      <g class="cls-12" transform="matrix(1, 0, 0, 1, -197.51, -263.07)">
        <path id="Union_L-16" data-name="Union L" class="cls-1" d="M50.051,144.346C135.153,45.137,91.993,0,50.051,0Zm0,0V0C7.163,0-36.973,45.137,50.051,144.346Z" transform="translate(296.5 407.42) rotate(180)"/>
      </g>
      <path id="Path_58-6" data-name="Path 58" class="cls-2" d="M1422.461,2753.343l.817,35.675,10.385-10.865-10.385,13.555v34.515l22.238-10.536,3.292-18.767-2.445,19.59-23.086,11.989.587,35.125,36.878-25.713-36.878,28.335.547,49.9h-2.7l.014-67.507-30.949-30.809,30.949,27.821-.167-46.373-12.51-12.15,12.51,9.795Z" transform="translate(-1373.779 -2744.245)"/>
      <ellipse id="Ellipse_18-6" data-name="Ellipse 18" class="cls-3" cx="29.709" cy="6.458" rx="29.709" ry="6.458" transform="translate(19.741 166.769)"/>
    </g>
    <g id="Group_35" data-name="Group 35" transform="translate(1441.281 -113.969)">
      <g class="cls-11" transform="matrix(1, 0, 0, 1, -1461.28, -20)">
        <path id="Union_S-17" data-name="Union S" class="cls-1" d="M62.535,180.351C168.865,56.4,114.938,0,62.535,0Zm0,0V0C8.949,0-46.2,56.4,62.535,180.351Z" transform="translate(1584.97 200.35) rotate(180)"/>
      </g>
      <g class="cls-10" transform="matrix(1, 0, 0, 1, -1461.28, -20)">
        <path id="Union_L-17" data-name="Union L" class="cls-1" d="M62.535,180.351C168.865,56.4,114.938,0,62.535,0Zm0,0V0C8.949,0-46.2,56.4,62.535,180.351Z" transform="translate(1584.97 200.35) rotate(180)"/>
      </g>
      <path id="Path_58-7" data-name="Path 58" class="cls-2" d="M1430.363,2753.343l1.021,44.573,12.976-13.575-12.976,16.936V2844.4l27.785-13.164,4.114-23.448-3.055,24.476-28.844,14.979.734,43.885,46.077-32.125-46.077,35.4.683,62.345h-3.37l.017-84.346-38.669-38.494,38.669,34.76-.208-57.939-15.63-15.182,15.63,12.239Z" transform="translate(-1369.54 -2741.975)"/>
      <ellipse id="Ellipse_18-7" data-name="Ellipse 18" class="cls-3" cx="38.328" cy="8.069" rx="38.328" ry="8.069" transform="translate(23.484 208.367)"/>
    </g>
    <g id="Group_36" data-name="Group 36" transform="translate(1546.667 111)">
      <g class="cls-9" transform="matrix(1, 0, 0, 1, -1566.67, -244.97)">
        <path id="Union_S-18" data-name="Union S" class="cls-1" d="M39.083,112.715C105.537,35.246,71.834,0,39.083,0Zm0,0V0C5.593,0-28.871,35.246,39.083,112.715Z" transform="translate(1643.97 357.68) rotate(180)"/>
      </g>
      <g class="cls-8" transform="matrix(1, 0, 0, 1, -1566.67, -244.97)">
        <path id="Union_L-18" data-name="Union L" class="cls-1" d="M39.083,112.715C105.537,35.246,71.834,0,39.083,0Zm0,0V0C5.593,0-28.871,35.246,39.083,112.715Z" transform="translate(1643.97 357.68) rotate(180)"/>
      </g>
      <path id="Path_58-8" data-name="Path 58" class="cls-2" d="M1415.518,2753.343l.638,27.858,8.11-8.484-8.11,10.585v26.952l17.365-8.228,2.571-14.655-1.909,15.3-18.027,9.363.459,27.428,28.8-20.078-28.8,22.125.427,38.964h-2.107l.011-52.714-24.167-24.058,24.167,21.725-.13-36.211-9.768-9.488,9.768,7.649Z" transform="translate(-1377.505 -2746.238)"/>
      <ellipse id="Ellipse_18-8" data-name="Ellipse 18" class="cls-3" cx="23.198" cy="5.043" rx="23.198" ry="5.043" transform="translate(15.415 130.224)"/>
    </g>
    <g id="Group_38" data-name="Group 38" transform="translate(971.525 33)">
      <g class="cls-7" transform="matrix(1, 0, 0, 1, -991.52, -166.97)">
        <path id="Union_S-19" data-name="Union S" class="cls-1" d="M39.083,112.715C105.537,35.246,71.834,0,39.083,0Zm0,0V0C5.593,0-28.871,35.246,39.083,112.715Z" transform="translate(1068.83 279.68) rotate(180)"/>
      </g>
      <g class="cls-6" transform="matrix(1, 0, 0, 1, -991.52, -166.97)">
        <path id="Union_L-19" data-name="Union L" class="cls-1" d="M39.083,112.715C105.537,35.246,71.834,0,39.083,0Zm0,0V0C5.593,0-28.871,35.246,39.083,112.715Z" transform="translate(1068.83 279.68) rotate(180)"/>
      </g>
      <path id="Path_58-9" data-name="Path 58" class="cls-2" d="M1415.518,2753.343l.638,27.858,8.11-8.484-8.11,10.585v26.952l17.365-8.228,2.571-14.655-1.909,15.3-18.027,9.363.459,27.428,28.8-20.078-28.8,22.125.427,38.964h-2.107l.011-52.714-24.167-24.058,24.167,21.725-.13-36.211-9.768-9.488,9.768,7.649Z" transform="translate(-1377.505 -2746.238)"/>
      <ellipse id="Ellipse_18-9" data-name="Ellipse 18" class="cls-3" cx="23.198" cy="5.043" rx="23.198" ry="5.043" transform="translate(15.415 130.224)"/>
    </g>
    <g id="Group_37" data-name="Group 37" transform="translate(1381.297 129.104)">
      <g class="cls-5" transform="matrix(1, 0, 0, 1, -1401.3, -263.07)">
        <path id="Union_S-20" data-name="Union S" class="cls-1" d="M50.051,0c85.1,99.209,41.942,144.346,0,144.346Zm0,0V144.346C7.163,144.346-36.973,99.209,50.051,0Z" transform="translate(1401.3 263.07)"/>
      </g>
      <g class="cls-4" transform="matrix(1, 0, 0, 1, -1401.3, -263.07)">
        <path id="Union_L-20" data-name="Union L" class="cls-1" d="M50.051,0c85.1,99.209,41.942,144.346,0,144.346Zm0,0V144.346C7.163,144.346-36.973,99.209,50.051,0Z" transform="translate(1401.3 263.07)"/>
      </g>
      <path id="Path_58-10" data-name="Path 58" class="cls-2" d="M1429.062,2753.343l-.817,35.675-10.386-10.865,10.386,13.555v34.515l-22.238-10.536-3.292-18.768,2.445,19.59,23.086,11.989-.588,35.125-36.878-25.713,36.878,28.335-.546,49.9h2.7l-.014-67.507,30.949-30.81-30.949,27.821.167-46.373,12.51-12.15-12.51,9.794Z" transform="translate(-1378.746 -2744.245)"/>
      <ellipse id="Ellipse_18-10" data-name="Ellipse 18" class="cls-3" cx="29.709" cy="6.458" rx="29.709" ry="6.458" transform="translate(19.838 166.769)"/>
    </g>
  </g>
</svg>
