<svg xmlns="http://www.w3.org/2000/svg" width="490.674" height="469.334" viewBox="0 0 490.674 469.334">
  <defs>
    <style>
      .cls-1 {
        fill: #455a64;
      }

      .cls-2 {
        fill: #ffc107;
      }

      .cls-3 {
        fill: #fafafa;
      }
    </style>
  </defs>
  <g id="carts" transform="translate(0 -10.67)">
    <g id="Group_115" data-name="Group 115">
      <circle id="Ellipse_27" data-name="Ellipse 27" class="cls-1" cx="53.333" cy="53.333" r="53.333" transform="translate(341.334 373.338)"/>
      <circle id="Ellipse_28" data-name="Ellipse 28" class="cls-1" cx="53.333" cy="53.333" r="53.333" transform="translate(128 373.338)"/>
    </g>
    <path id="Path_164" data-name="Path 164" class="cls-2" d="M488,78.276a10.665,10.665,0,0,0-8-3.605H96a10.664,10.664,0,0,0-10.453,12.8L128.214,300.8a11.553,11.553,0,0,0,11.861,8.533l320-42.667a10.666,10.666,0,0,0,9.173-9.259L490.581,86.744A10.661,10.661,0,0,0,488,78.276Z"/>
    <g id="Group_116" data-name="Group 116">
      <path id="Path_165" data-name="Path 165" class="cls-3" d="M181.333,266.671a10.666,10.666,0,0,1-10.517-8.917l-21.333-128a10.667,10.667,0,0,1,21.035-3.5l21.333,128a10.667,10.667,0,0,1-8.768,12.267A10.258,10.258,0,0,1,181.333,266.671Z"/>
      <path id="Path_166" data-name="Path 166" class="cls-3" d="M234.667,256A10.667,10.667,0,0,1,224,246.3L213.333,128.964a10.666,10.666,0,0,1,9.621-11.619l.086-.008A10.667,10.667,0,0,1,234.624,127h0l10.667,117.333a10.668,10.668,0,0,1-9.663,11.584h0Z"/>
      <path id="Path_167" data-name="Path 167" class="cls-3" d="M288,245.337a10.667,10.667,0,0,1-10.667-10.667V128a10.667,10.667,0,1,1,21.334,0V234.671A10.666,10.666,0,0,1,288,245.337Z"/>
      <path id="Path_168" data-name="Path 168" class="cls-3" d="M341.333,234.671h-1.2a10.667,10.667,0,0,1-9.484-11.731l.012-.109,10.667-96a10.816,10.816,0,0,1,11.84-9.493,10.668,10.668,0,0,1,9.43,11.775h0l-10.667,96A10.667,10.667,0,0,1,341.333,234.671Z"/>
      <path id="Path_169" data-name="Path 169" class="cls-3" d="M394.667,224a10.667,10.667,0,0,1-10.347-13.248l21.333-85.333a10.667,10.667,0,1,1,20.813,4.683q-.054.241-.12.48l-21.333,85.333A10.665,10.665,0,0,1,394.667,224Z"/>
    </g>
    <path id="Path_170" data-name="Path 170" class="cls-1" d="M437.333,352H191.125a74.88,74.88,0,0,1-73.216-60.011L65.92,32H10.667a10.667,10.667,0,0,1,0-21.334h64A10.666,10.666,0,0,1,85.12,19.2L138.837,287.79a53.483,53.483,0,0,0,52.288,42.88H437.333a10.667,10.667,0,0,1,0,21.334Z"/>
  </g>
</svg>
