<svg id="Capa_1" enable-background="new 0 0 497.59 497.59" height="512" viewBox="0 0 497.59 497.59" width="512" xmlns="http://www.w3.org/2000/svg"><g><path d="m196.587 66.402c0-3.904-3.165-7.069-7.069-7.069h-21.956c-3.071 0-5.79 1.983-6.73 4.906l-12.814 39.877-6.923 18.472h55.491v-56.186z" fill="#d7d0d6"/><path d="m258.48 216.676c-3.4 0-6.16 2.76-6.16 6.16v79.56 17.514h26.325l3.975-17.514v-85.72z" fill="#baafb9"/><path d="m231.69 302.397h-38.92c-2.94 0-5.31 2.38-5.31 5.31v18.78c0 2.93 2.37 5.31 5.31 5.31h48.022v-22.345z" fill="#baafb9"/><path d="m282.62 302.397v76.56h-58.6v-68.89c0-4.24 3.44-7.67 7.67-7.67z" fill="#80d261"/><g><path d="m282.623 386.457c-4.143 0-7.5-3.358-7.5-7.5v-255.005c0-4.142 3.357-7.5 7.5-7.5s7.5 3.358 7.5 7.5v255.004c0 4.143-3.357 7.501-7.5 7.501z" fill="#d7d0d6"/></g><path d="m366.397 236.859c0 .021-.008.041-.023.055l-30.083 30.083c-9.424 9.424-14.719 22.207-14.719 35.535v58.662 17.758h81.052v-255h-37.301z" fill="#d7d0d6"/><path d="m489.141 246.042h-80.589l-24.352 17.105-28.54 28.54c-.8.8-1.51 1.69-2.09 2.64l33.505 18.315h100.096l10.419-18.315v-31.18z" fill="#97da7b"/><path d="m353.57 294.327c-1.46 2.33-2.25 5.05-2.25 7.84v60.13l35.66 19.966h100.263l10.347-19.966v-67.97z" fill="#80d261"/><path d="m351.459 362.374 35.521 19.889h100.263l2.511-4.846c-4.296-35.32-34.445-62.778-70.906-62.778-31.086 0-57.585 19.962-67.389 47.735z" fill="#68ca44"/><path d="m161.3 362.297c-3.1 0-5.62-2.51-5.62-5.62l-.221-126.166h-96.813l-17.826 17.825v83.46l70.24 59.61h378.72c4.31 0 7.81-3.49 7.81-7.81v-21.3h-336.29z" fill="#97da7b"/><g><path d="m52.17 333.927c-28.77 0-52.17 23.4-52.17 52.16 0 28.77 23.4 52.17 52.17 52.17 28.76 0 52.17-23.4 52.17-52.17 0-28.76-23.41-52.16-52.17-52.16z" fill="#918291"/><path d="m98.55 409.926c3.691-7.151 5.79-15.252 5.79-23.84 0-20.209-11.566-37.758-28.418-46.415h-25.517c3.986-2.047 8.265-3.6 12.76-4.569-3.547-.764-7.224-1.177-10.996-1.177-28.77 0-52.17 23.4-52.17 52.16 0 28.77 23.4 52.17 52.17 52.17 3.772 0 7.467-.406 11.015-1.17-23.503-5.064-41.19-26.003-41.19-51 0-3.256.301-6.443.876-9.534 1.01-5.432 7.151-8.172 11.876-5.307z" fill="#7a6d79"/><g><path d="m74.34 386.087c0 12.25-9.93 22.17-22.17 22.17-12.25 0-22.17-9.92-22.17-22.17 0-12.24 9.92-22.16 22.17-22.16 12.24 0 22.17 9.92 22.17 22.16z" fill="#7a6d79"/></g><path d="m35.375 371.627 37.389 22.667c1.013-2.539 1.575-5.306 1.575-8.207 0-12.24-9.93-22.16-22.17-22.16-6.717 0-12.729 2.987-16.794 7.7z" fill="#685e68"/><path d="m58.646 230.51-17.826 17.826v83.46l70.24 59.61h5.439 17.066c.116-1.773.176-3.55.176-5.316 0-34.024-20.943-63.237-50.611-75.452-9.286-3.823-15.436-12.761-15.436-22.804v-51.416l73.61-.892c3.262 0 6.125-2.036 7.254-5.017h-89.912z" fill="#80d261"/><path d="m52.168 324.517c-13.128 0-25.287 4.117-35.278 11.121-2.61 1.829-2.457 5.751.269 7.403l89.376 54.184c2.751 1.668 6.285-.063 6.698-3.254.334-2.58.509-5.21.509-7.881-.001-34.006-27.568-61.573-61.574-61.573z" fill="#97da7b"/><path d="m347.396 386.09c0 1.79.089 3.559.219 5.316h142.165c.102 0 .201-.011.302-.015.129-1.753.218-3.516.218-5.301 0-8.341-1.45-16.346-4.089-23.794h-134.726c-2.638 7.448-4.089 15.453-4.089 23.794z" fill="#80d261"/><circle cx="418.848" cy="386.09" fill="#918291" r="51.452"/><path d="m389.448 386.09c0-24.63 17.335-45.217 40.45-50.266-3.553-.776-7.264-1.185-11.05-1.185-28.416 0-51.452 23.036-51.452 51.452s23.036 51.452 51.452 51.452c3.786 0 7.517-.418 11.07-1.194-23.115-5.05-40.47-25.629-40.47-50.259z" fill="#7a6d79"/><circle cx="418.848" cy="386.09" fill="#7a6d79" r="20.898"/><path d="m71.401 324.517h-37.619c-5.782 0-10.469-4.687-10.469-10.469v-17.322c0-5.782 4.687-10.469 10.469-10.469h6.786c17.948 0 32.498 14.55 32.498 32.498v4.096c0 .921-.745 1.666-1.665 1.666z" fill="#fee97d"/><g id="XMLID_198_"><g><g id="XMLID_199_"><g><path d="m497.37 176.057-13.499-16.329h-73.83l-13.891 16.499v68.84c0 3.93-1.56 7.7-4.34 10.48l-7.6 7.6h113.38v-81.33c0-1.94-.07-3.86-.22-5.76z" fill="#fee97d"/></g></g><path d="m419.89 104.117h-238.58l-12.277 11.883v26.649l12.277 5.237h206.83c4.42 0 8.01 3.59 8.01 8.01v20.33l101.22-.17c-2.94-40.22-36.51-71.939-77.48-71.939z" fill="#fee45a"/><path d="m103.158 119.373-5.468 14.144-48.27 83.459 2.637 11.931h83.012l21.562-109.534z" fill="#99e6fc"/><path d="m73.066 219.063 48.27-83.46 5.468-14.144h29.417l.41-2.086h-53.473l-5.468 14.144-48.27 83.459 2.637 11.931h23.184z" fill="#62dbfb"/><path d="m181.31 147.887v5.805c0 1.32-.144 2.635-.431 3.923l-19.069 85.802c-.639 2.875-3.189 4.92-6.133 4.92h-114.857v-13.68c0-1.86.49-3.69 1.42-5.3l7.18-12.38 65.01.36c3.61 0 6.74-2.49 7.56-6l16.32-69.8c.92-3.96-2.08-7.74-6.14-7.74h-32.53c-.68 0-1.33-.1-1.95-.28-2.89-.84-4.99-3.51-4.99-6.66v-15.8c0-3.83 3.1-6.94 6.94-6.94h81.67z" fill="#fee97d"/><path d="m67.693 248.336c0-6.605 5.312-11.982 11.917-12.062l61.693-.747c3.61 0 6.74-2.49 7.56-6l16.32-98.8c.92-3.96-2.08-7.74-6.14-7.74 0 0-39.86-.1-40.48-.28-2.89-.84-4.99-3.51-4.99-6.66v-11.93h-13.933c-3.833 0-6.94 3.107-6.94 6.94v15.8c0 3.15 2.1 5.82 4.99 6.66.62.18 1.27.28 1.95.28h32.53c4.06 0 7.06 3.78 6.14 7.74l-16.32 69.8c-.82 3.51-3.95 6-7.56 6l-65.01-.36-7.18 12.38c-.93 1.61-1.42 3.44-1.42 5.3v13.68h26.873z" fill="#fee45a"/></g></g></g></g></svg>