<svg xmlns="http://www.w3.org/2000/svg" width="430" height="508" viewBox="0 0 430 508">
  <defs>
    <style>
      .cls-1 {
        fill: #455a64;
      }

      .cls-2 {
        fill: #bfdbff;
      }

      .cls-3 {
        fill: #ffc107;
      }
    </style>
  </defs>
  <g id="face-detection" transform="translate(-39)">
    <path id="Path_190" data-name="Path 190" class="cls-1" d="M361.475,154.892A159.03,159.03,0,0,0,372.5,96.711V78.5A68.5,68.5,0,0,0,304,10a32.866,32.866,0,0,0-22.9,9.25,10.156,10.156,0,0,1-14.2,0A32.862,32.862,0,0,0,244,10a105.563,105.563,0,0,0-97.962,144.737Z"/>
    <path id="Path_191" data-name="Path 191" class="cls-2" d="M205,341.938a323.044,323.044,0,0,0-90.836,37.094A123.933,123.933,0,0,0,54,485.348V498H454V485.348a123.933,123.933,0,0,0-60.164-106.316A323.014,323.014,0,0,0,303,341.938Z"/>
    <path id="Path_192" data-name="Path 192" class="cls-3" d="M379.262,154.04a20.448,20.448,0,0,0-17.792.87,56.2,56.2,0,0,0-31.78-43.154c-14.556-6.827-23.323-21.383-23.69-37.727C305.307,105.467,280.471,131,249,131a56.86,56.86,0,0,1-36.085-12.767A40.818,40.818,0,0,0,187.174,109c-22.648-.1-41.174,19.166-41.174,41.814v3.937a20.444,20.444,0,0,0-17.211-.564c-10.422,4.424-15.7,16.644-10.86,26.88,6.276,13.284,20.929,38.809,27.205,52.093a10.656,10.656,0,0,0,13.769,5.563,229.318,229.318,0,0,0,30.5,58.344A80.852,80.852,0,0,0,205,313.356V343a49,49,0,0,0,98,0V313.35a80.859,80.859,0,0,0,15.616-16.3,229.382,229.382,0,0,0,30.535-58.469,10.652,10.652,0,0,0,13.766-5.563c6.276-13.284,20.929-38.808,27.2-52.093,4.836-10.237-.439-22.456-10.861-26.88Z"/>
    <path id="Path_193" data-name="Path 193" class="cls-1" d="M44,498V485.35c0-66.672,45.22-103.03,65.02-114.9A333.153,333.153,0,0,1,195,334.157v-16.1a91.977,91.977,0,0,1-13.708-15.134,239.4,239.4,0,0,1-29.122-53.565,20.962,20.962,0,0,1-16.078-11.925c-3.023-6.4-23.992-45.189-27.205-52.092-8.145-17.5,2.5-34.791,16-40.357a31.822,31.822,0,0,1,6.907-2A115.6,115.6,0,0,1,244,0a42.772,42.772,0,0,1,29.846,12.054.22.22,0,0,0,.307,0A42.778,42.778,0,0,1,304,0a78.589,78.589,0,0,1,78.5,78.5V96.711a168.287,168.287,0,0,1-6.4,46.079,27.91,27.91,0,0,1,7.072,2.045c16.6,7.519,23.088,26.1,15.994,40.357-3.391,6.815-24.181,45.69-27.2,52.092a20.97,20.97,0,0,1-16.07,11.924,239.422,239.422,0,0,1-29.165,53.69A92.073,92.073,0,0,1,313,318.051v16.105a333.167,333.167,0,0,1,85.98,36.293c19.8,11.87,65.02,48.228,65.02,114.9V498a10,10,0,0,1-10,10H299.09a10.009,10.009,0,0,1-9.978-10.669A10.235,10.235,0,0,1,299.441,488H444c0-42.226-21.19-79.95-55.31-100.39a313.013,313.013,0,0,0-76.835-33.047,59,59,0,0,1-115.71,0A313.094,313.094,0,0,0,119.31,387.61C85.19,408.05,64,444.613,64,488H209.1a10.009,10.009,0,0,1,9.967,10.7,10.237,10.237,0,0,1-10.33,9.3H54a10,10,0,0,1-10-10ZM148.536,117.033C149.459,115.948,163.258,99,187.007,99a50.981,50.981,0,0,1,32.234,11.488A47.126,47.126,0,0,0,249,121c25.773,0,46.419-20.729,47-47.191a10,10,0,0,1,20,0c.287,12.77,22.765,31.343,25.274,32.914a65.547,65.547,0,0,1,18.643,17.693,148.876,148.876,0,0,0,2.586-27.7V78.5A58.566,58.566,0,0,0,304,20a22.871,22.871,0,0,0-15.958,6.445,20.146,20.146,0,0,1-28.086,0A22.867,22.867,0,0,0,244,20C191.341,20,148.032,62.29,148.536,117.033ZM293,331.373c-23.677,11.176-51.032,12.466-78,0V343a39,39,0,0,0,78,0Zm17.508-40.181a218.981,218.981,0,0,0,29.2-55.92c1.223-3.5,5.868-8.788,13.739-5.691,3.71-7.9,24.6-46.532,27.629-52.932,2.307-4.875-.483-11.224-5.726-13.4a10.781,10.781,0,0,0-9.116.455c-6.207,3.171-13.884-.571-14.676-7.431-1.8-15.573-11.894-28.787-26.119-35.458a50.125,50.125,0,0,1-18.1-14.371,77.6,77.6,0,0,1-11.2,14.907c-18.98,20.46-58.658,29.557-89.552,4.632-12.052-9.724-29.976-9.139-41.035,2.08A32.726,32.726,0,0,0,156,150.817v3.937a10.023,10.023,0,0,1-14.486,8.938,10.815,10.815,0,0,0-8.818-.3c-4.535,1.8-8.406,7.671-5.726,13.4,3,6.416,24.352,45.623,27.514,52.784,8.806-3.065,12.939,3.225,13.854,5.833a219.3,219.3,0,0,0,29.169,55.8,69.5,69.5,0,0,0,113-.024ZM469,60V10A10,10,0,0,0,459,0H409a10,10,0,1,0,0,20h40V60a10,10,0,0,0,20,0Zm0,273V283a10,10,0,0,0-20,0v40H409a10,10,0,0,0,0,20h50A10,10,0,0,0,469,333ZM59,60V20H99A10,10,0,0,0,99,0H49A10,10,0,0,0,39,10V60a10,10,0,0,0,20,0Zm50,273a10,10,0,0,0-10-10H59V283a10,10,0,0,0-20,0v50a10,10,0,0,0,10,10H99A10,10,0,0,0,109,333Z"/>
  </g>
</svg>
