<svg xmlns="http://www.w3.org/2000/svg" width="472.5" height="464" viewBox="0 0 472.5 464">
  <defs>
    <style>
      .cls-1 {
        fill: #ffc107;
      }

      .cls-2 {
        fill: #455a64;
      }

      .cls-3 {
        fill: #0296e5;
      }

      .cls-4, .cls-8 {
        fill: #eaeae8;
      }

      .cls-5 {
        fill: #cbcbcb;
      }

      .cls-6 {
        fill: #d18d28;
      }

      .cls-7 {
        fill: #fbb540;
      }

      .cls-8 {
        stroke: #707070;
      }
    </style>
  </defs>
  <g id="flat" transform="translate(-23.5 -24)">
    <path id="Path_171" data-name="Path 171" class="cls-1" d="M344,488H72L40,232H376Z"/>
    <path id="Path_172" data-name="Path 172" class="cls-2" d="M464,488H368L352,328H480Z"/>
    <path id="Path_173" data-name="Path 173" class="cls-3" d="M473.71,390.89l-4.72,47.17L361.1,419.02l-4.88-48.86Z"/>
    <path id="Path_174" data-name="Path 174" class="cls-4" d="M488,296H344l8-32H480Z"/>
    <path id="Path_175" data-name="Path 175" class="cls-2" d="M448,264H432V184l24-48h16l-24,56Z"/>
    <g id="Group_117" data-name="Group 117">
      <path id="Path_176" data-name="Path 176" class="cls-5" d="M184,232h48V488H184Z"/>
      <path id="Path_177" data-name="Path 177" class="cls-5" d="M144,488H104L88,232h48Z"/>
      <path id="Path_178" data-name="Path 178" class="cls-5" d="M312,488H272l8-256h48Z"/>
    </g>
    <path id="Path_179" data-name="Path 179" class="cls-6" d="M291.714,120.036a20,20,0,0,0-11.142-26A20,20,0,1,0,243.433,79.18a20,20,0,1,0-14.856,37.139c.208.083.418.139.627.215a.275.275,0,0,0-.014.03,20,20,0,0,0,37.139,14.856.092.092,0,0,1,.01-.032A19.986,19.986,0,0,0,291.714,120.036Z"/>
    <path id="Path_180" data-name="Path 180" class="cls-7" d="M187.88,99.034A20,20,0,0,0,161.967,87.7a20,20,0,0,0-37.25,14.576,20,20,0,1,0,14.576,37.25c.208-.081.4-.185.6-.272a.107.107,0,0,0,.01.032,20,20,0,1,0,37.25-14.576c0-.011-.01-.02-.014-.031A19.985,19.985,0,0,0,187.88,99.034Z"/>
    <path id="Path_181" data-name="Path 181" class="cls-6" d="M99.88,48.054A20,20,0,0,0,73.967,36.717a20,20,0,1,0-37.25,14.576,20,20,0,0,0,14.576,37.25c.208-.081.4-.184.6-.272a.1.1,0,0,0,.01.032,20,20,0,1,0,37.25-14.576c0-.011-.01-.02-.014-.03A19.986,19.986,0,0,0,99.88,48.054Z"/>
    <path id="Path_182" data-name="Path 182" class="cls-7" d="M120,184a20,20,0,0,0-20-20,20,20,0,0,0-40,0,20,20,0,0,0,0,40c.223,0,.439-.026.661-.033V204a20,20,0,0,0,40,0q0-.017,0-.033A19.986,19.986,0,0,0,120,184Z"/>
    <path id="Path_183" data-name="Path 183" class="cls-6" d="M200,184a20,20,0,0,0-20-20,20,20,0,0,0-40,0,20,20,0,0,0,0,40c.223,0,.439-.026.661-.033V204a20,20,0,0,0,40,0v-.033A19.986,19.986,0,0,0,200,184Z"/>
    <path id="Path_184" data-name="Path 184" class="cls-7" d="M280,184a20,20,0,0,0-20-20,20,20,0,0,0-40,0,20,20,0,0,0,0,40c.223,0,.439-.026.661-.033V204a20,20,0,0,0,40,0v-.033A19.986,19.986,0,0,0,280,184Z"/>
    <path id="Path_185" data-name="Path 185" class="cls-6" d="M360,184a20,20,0,0,0-20-20,20,20,0,0,0-40,0,20,20,0,0,0,0,40c.223,0,.439-.026.661-.033V204a20,20,0,0,0,40,0v-.033A19.986,19.986,0,0,0,360,184Z"/>
    <path id="Path_186" data-name="Path 186" class="cls-7" d="M389.936,95.625a20,20,0,0,0-9.1-26.78,20,20,0,0,0-35.881-17.681,20,20,0,0,0-17.68,35.881c.2.1.406.171.608.262,0,.01-.012.019-.017.029a20,20,0,1,0,35.881,17.68.079.079,0,0,1,.013-.03,19.985,19.985,0,0,0,26.176-9.361Z"/>
    <circle id="Ellipse_29" data-name="Ellipse 29" class="cls-4" cx="72" cy="72" r="72" transform="translate(136 280)"/>
    <path id="Path_187" data-name="Path 187" class="cls-1" d="M473.71,390.89l-4.72,47.17L361.1,419.02l-4.88-48.86Z"/>
    <path id="Path_188" data-name="Path 188" class="cls-5" d="M336,296H496v32H336Z"/>
    <rect id="Rectangle_12" data-name="Rectangle 12" class="cls-8" width="368" height="32" rx="16" transform="translate(24 200)"/>
    <path id="Path_189" data-name="Path 189" class="cls-1" d="M432,248h16v16H432Z"/>
  </g>
</svg>
